Genre:  drama
Language:English
IMDb:http://www.imdb.com/title/tt1365483/
SourceVD


Format                           : Matroska
File size                        : 866 MiB
Duration                         : 1h 23mn
Overall bit rate                 : 1 453 Kbps


Video
Format settings, CABAC           : Yes
Format settings, ReFrames        : 4 frames
Codec ID                         : V_MPEG4/ISO/AVC
Duration                         : 1h 23mn
Bit rate                         : 1 200 Kbps
Width                            : 720 pixels
Height                           : 384 pixels
Display aspect ratio             : 1.875
Frame rate mode                  : Variable
Frame rate                       : 25.000 fps
Color space                      : YUV
Chroma subsampling               : 4:2:0
Bit depth                        : 8 bits
Scan type                        : Progressive
Bits/(Pixel*Frame)               : 0.174
Stream size                      : 696 MiB (80%)
Writing library                  : x264


Audio
ID                               : 2
Format                           : AC-3
Format/Info                      : Audio Coding 3
Mode extension                   : CM (complete main)
Codec ID                         : A_AC3
Duration                         : 1h 23mn
Bit rate mode                    : Constant
Bit rate                         : 256 Kbps
Channel(s)                       : 2 channels
Channel positions                : Front: L R
Sampling rate                    : 48.0 KHz
Bit depth                        : 16 bits
Video delay                      : -40ms
Stream size                      : 152 MiB (18%)
Language                         : English

   
Plot:
 Several residents of a small Southern city whose lives are changed by the arrival of a stranger with a controversial plan to save their decaying hometown

